<mxfile host="app.diagrams.net" modified="2023-05-28T11:35:43.648Z" agent="Mozilla/5.0 (Windows NT 10.0; Win64; x64) AppleWebKit/537.36 (KHTML, like Gecko) Chrome/113.0.0.0 Safari/537.36" etag="hWNmw-Gh-IajCgMCW_A3" version="21.2.7" type="github">
  <diagram name="Page-1" id="YEeCBTg5T4ismQpuaNu9">
    <mxGraphModel dx="1034" dy="381" grid="1" gridSize="10" guides="1" tooltips="1" connect="1" arrows="1" fold="1" page="1" pageScale="1" pageWidth="500" pageHeight="700" math="0" shadow="0">
      <root>
        <mxCell id="0" />
        <mxCell id="1" parent="0" />
      </root>
    </mxGraphModel>
  </diagram>
</mxfile>
